<?xml version="1.0" ?><svg data-name="Layer 1" id="Layer_1" viewBox="0 0 100 100" xmlns="http://www.w3.org/2000/svg"><defs><style>.cls-1{fill:#4d4d4d;}</style></defs><title/><path class="cls-1" d="M50,4.5A41.54747,41.54747,0,0,0,8.5,46v8.5a41.5,41.5,0,0,0,83,0V46A41.54747,41.54747,0,0,0,50,4.5Zm0,6A35.37521,35.37521,0,1,1,14.50317,45.875,35.538,35.538,0,0,1,50,10.5ZM50,90A35.55507,35.55507,0,0,1,15.486,62.78424a38.47983,38.47983,0,0,0,69.02808,0A35.55507,35.55507,0,0,1,50,90Z"/><path class="cls-1" d="M32.33893,61.5H52.55829a1.63552,1.63552,0,0,1,1.6358,1.48279,23.00064,23.00064,0,0,1-1.76074,9.8136,1.003,1.003,0,0,0,1.371,1.27124,18.15748,18.15748,0,0,0,9.33246-11.42621A1.6252,1.6252,0,0,1,64.69269,61.5h2.96844a5.67222,5.67222,0,0,0,5.67218-5.67218V32.17218A5.67218,5.67218,0,0,0,67.66113,26.5H32.33887a5.67218,5.67218,0,0,0-5.67218,5.67218V55.82776A5.67224,5.67224,0,0,0,32.33893,61.5ZM34.1875,36.5625h31.625a1.5,1.5,0,0,1,0,3H34.1875A1.5,1.5,0,0,1,34.1875,36.5625Zm0,5.9375h31.625a1.5,1.5,0,0,1,0,3H34.1875A1.5,1.5,0,0,1,34.1875,42.5Zm0,5.9375h31.625a1.5,1.5,0,0,1,0,3H34.1875A1.5,1.5,0,0,1,34.1875,48.4375Z"/></svg>